<mxfile host="app.diagrams.net" agent="Mozilla/5.0 (Windows NT 10.0; Win64; x64) AppleWebKit/537.36 (KHTML, like Gecko) Chrome/131.0.0.0 Safari/537.36" version="26.0.10">
  <diagram name="Pagina-1" id="LMmigkatVMJOyU_pui6A">
    <mxGraphModel dx="1050" dy="557" grid="1" gridSize="10" guides="1" tooltips="1" connect="1" arrows="1" fold="1" page="1" pageScale="1" pageWidth="827" pageHeight="1169" math="0" shadow="0">
      <root>
        <mxCell id="0" />
        <mxCell id="1" parent="0" />
        <mxCell id="V9wCt3ZfCj6iglLPkDqE-3" value="" style="edgeStyle=orthogonalEdgeStyle;rounded=0;orthogonalLoop=1;jettySize=auto;html=1;" edge="1" parent="1" source="V9wCt3ZfCj6iglLPkDqE-1" target="V9wCt3ZfCj6iglLPkDqE-2">
          <mxGeometry relative="1" as="geometry" />
        </mxCell>
        <mxCell id="V9wCt3ZfCj6iglLPkDqE-1" value="start" style="ellipse;whiteSpace=wrap;html=1;" vertex="1" parent="1">
          <mxGeometry x="354" width="120" height="80" as="geometry" />
        </mxCell>
        <mxCell id="V9wCt3ZfCj6iglLPkDqE-5" value="" style="edgeStyle=orthogonalEdgeStyle;rounded=0;orthogonalLoop=1;jettySize=auto;html=1;" edge="1" parent="1" source="V9wCt3ZfCj6iglLPkDqE-2" target="V9wCt3ZfCj6iglLPkDqE-4">
          <mxGeometry relative="1" as="geometry" />
        </mxCell>
        <mxCell id="V9wCt3ZfCj6iglLPkDqE-2" value="counter = 0" style="whiteSpace=wrap;html=1;" vertex="1" parent="1">
          <mxGeometry x="354" y="170" width="120" height="60" as="geometry" />
        </mxCell>
        <mxCell id="V9wCt3ZfCj6iglLPkDqE-7" value="" style="edgeStyle=orthogonalEdgeStyle;rounded=0;orthogonalLoop=1;jettySize=auto;html=1;" edge="1" parent="1" source="V9wCt3ZfCj6iglLPkDqE-4" target="V9wCt3ZfCj6iglLPkDqE-6">
          <mxGeometry relative="1" as="geometry" />
        </mxCell>
        <mxCell id="V9wCt3ZfCj6iglLPkDqE-4" value="read n" style="shape=parallelogram;perimeter=parallelogramPerimeter;whiteSpace=wrap;html=1;fixedSize=1;" vertex="1" parent="1">
          <mxGeometry x="354" y="310" width="120" height="60" as="geometry" />
        </mxCell>
        <mxCell id="V9wCt3ZfCj6iglLPkDqE-9" value="" style="edgeStyle=orthogonalEdgeStyle;rounded=0;orthogonalLoop=1;jettySize=auto;html=1;" edge="1" parent="1" source="V9wCt3ZfCj6iglLPkDqE-6" target="V9wCt3ZfCj6iglLPkDqE-8">
          <mxGeometry relative="1" as="geometry" />
        </mxCell>
        <mxCell id="V9wCt3ZfCj6iglLPkDqE-33" value="TRUE" style="edgeLabel;html=1;align=center;verticalAlign=middle;resizable=0;points=[];" vertex="1" connectable="0" parent="V9wCt3ZfCj6iglLPkDqE-9">
          <mxGeometry x="-0.4178" relative="1" as="geometry">
            <mxPoint as="offset" />
          </mxGeometry>
        </mxCell>
        <mxCell id="V9wCt3ZfCj6iglLPkDqE-38" style="edgeStyle=orthogonalEdgeStyle;rounded=0;orthogonalLoop=1;jettySize=auto;html=1;exitX=0;exitY=0.5;exitDx=0;exitDy=0;entryX=1;entryY=0.5;entryDx=0;entryDy=0;" edge="1" parent="1" source="V9wCt3ZfCj6iglLPkDqE-6" target="V9wCt3ZfCj6iglLPkDqE-37">
          <mxGeometry relative="1" as="geometry" />
        </mxCell>
        <mxCell id="V9wCt3ZfCj6iglLPkDqE-42" value="FALSE" style="edgeLabel;html=1;align=center;verticalAlign=middle;resizable=0;points=[];" vertex="1" connectable="0" parent="V9wCt3ZfCj6iglLPkDqE-38">
          <mxGeometry x="-0.0848" y="-1" relative="1" as="geometry">
            <mxPoint as="offset" />
          </mxGeometry>
        </mxCell>
        <mxCell id="V9wCt3ZfCj6iglLPkDqE-6" value="counter &amp;lt; n" style="rhombus;whiteSpace=wrap;html=1;" vertex="1" parent="1">
          <mxGeometry x="374" y="440" width="80" height="80" as="geometry" />
        </mxCell>
        <mxCell id="V9wCt3ZfCj6iglLPkDqE-11" value="" style="edgeStyle=orthogonalEdgeStyle;rounded=0;orthogonalLoop=1;jettySize=auto;html=1;" edge="1" parent="1" source="V9wCt3ZfCj6iglLPkDqE-8" target="V9wCt3ZfCj6iglLPkDqE-10">
          <mxGeometry relative="1" as="geometry" />
        </mxCell>
        <mxCell id="V9wCt3ZfCj6iglLPkDqE-8" value="counter += 1" style="whiteSpace=wrap;html=1;" vertex="1" parent="1">
          <mxGeometry x="354" y="610" width="120" height="60" as="geometry" />
        </mxCell>
        <mxCell id="V9wCt3ZfCj6iglLPkDqE-13" value="" style="edgeStyle=orthogonalEdgeStyle;rounded=0;orthogonalLoop=1;jettySize=auto;html=1;" edge="1" parent="1" source="V9wCt3ZfCj6iglLPkDqE-10" target="V9wCt3ZfCj6iglLPkDqE-12">
          <mxGeometry relative="1" as="geometry" />
        </mxCell>
        <mxCell id="V9wCt3ZfCj6iglLPkDqE-10" value="read x" style="shape=parallelogram;perimeter=parallelogramPerimeter;whiteSpace=wrap;html=1;fixedSize=1;" vertex="1" parent="1">
          <mxGeometry x="354" y="750" width="120" height="60" as="geometry" />
        </mxCell>
        <mxCell id="V9wCt3ZfCj6iglLPkDqE-15" value="" style="edgeStyle=orthogonalEdgeStyle;rounded=0;orthogonalLoop=1;jettySize=auto;html=1;" edge="1" parent="1" source="V9wCt3ZfCj6iglLPkDqE-12" target="V9wCt3ZfCj6iglLPkDqE-14">
          <mxGeometry relative="1" as="geometry" />
        </mxCell>
        <mxCell id="V9wCt3ZfCj6iglLPkDqE-12" value="read y" style="shape=parallelogram;perimeter=parallelogramPerimeter;whiteSpace=wrap;html=1;fixedSize=1;" vertex="1" parent="1">
          <mxGeometry x="354" y="890" width="120" height="60" as="geometry" />
        </mxCell>
        <mxCell id="V9wCt3ZfCj6iglLPkDqE-21" value="" style="edgeStyle=orthogonalEdgeStyle;rounded=0;orthogonalLoop=1;jettySize=auto;html=1;" edge="1" parent="1" source="V9wCt3ZfCj6iglLPkDqE-14" target="V9wCt3ZfCj6iglLPkDqE-20">
          <mxGeometry relative="1" as="geometry" />
        </mxCell>
        <mxCell id="V9wCt3ZfCj6iglLPkDqE-32" value="FALSE" style="edgeLabel;html=1;align=center;verticalAlign=middle;resizable=0;points=[];" vertex="1" connectable="0" parent="V9wCt3ZfCj6iglLPkDqE-21">
          <mxGeometry x="-0.195" y="1" relative="1" as="geometry">
            <mxPoint as="offset" />
          </mxGeometry>
        </mxCell>
        <mxCell id="V9wCt3ZfCj6iglLPkDqE-27" value="" style="edgeStyle=orthogonalEdgeStyle;rounded=0;orthogonalLoop=1;jettySize=auto;html=1;" edge="1" parent="1" source="V9wCt3ZfCj6iglLPkDqE-14" target="V9wCt3ZfCj6iglLPkDqE-26">
          <mxGeometry relative="1" as="geometry" />
        </mxCell>
        <mxCell id="V9wCt3ZfCj6iglLPkDqE-28" value="TRUE" style="edgeLabel;html=1;align=center;verticalAlign=middle;resizable=0;points=[];" vertex="1" connectable="0" parent="V9wCt3ZfCj6iglLPkDqE-27">
          <mxGeometry x="0.0597" y="-1" relative="1" as="geometry">
            <mxPoint as="offset" />
          </mxGeometry>
        </mxCell>
        <mxCell id="V9wCt3ZfCj6iglLPkDqE-14" value="x &amp;gt; 0&lt;div&gt;AND&lt;/div&gt;&lt;div&gt;y &amp;gt; 0&lt;/div&gt;" style="rhombus;whiteSpace=wrap;html=1;" vertex="1" parent="1">
          <mxGeometry x="374" y="1020" width="80" height="80" as="geometry" />
        </mxCell>
        <mxCell id="V9wCt3ZfCj6iglLPkDqE-23" value="" style="edgeStyle=orthogonalEdgeStyle;rounded=0;orthogonalLoop=1;jettySize=auto;html=1;" edge="1" parent="1" source="V9wCt3ZfCj6iglLPkDqE-20" target="V9wCt3ZfCj6iglLPkDqE-22">
          <mxGeometry relative="1" as="geometry" />
        </mxCell>
        <mxCell id="V9wCt3ZfCj6iglLPkDqE-30" value="FALSE" style="edgeLabel;html=1;align=center;verticalAlign=middle;resizable=0;points=[];" vertex="1" connectable="0" parent="V9wCt3ZfCj6iglLPkDqE-23">
          <mxGeometry x="-0.1956" y="-1" relative="1" as="geometry">
            <mxPoint as="offset" />
          </mxGeometry>
        </mxCell>
        <mxCell id="V9wCt3ZfCj6iglLPkDqE-25" value="" style="edgeStyle=orthogonalEdgeStyle;rounded=0;orthogonalLoop=1;jettySize=auto;html=1;" edge="1" parent="1" source="V9wCt3ZfCj6iglLPkDqE-20" target="V9wCt3ZfCj6iglLPkDqE-24">
          <mxGeometry relative="1" as="geometry" />
        </mxCell>
        <mxCell id="V9wCt3ZfCj6iglLPkDqE-31" value="TRUE" style="edgeLabel;html=1;align=center;verticalAlign=middle;resizable=0;points=[];" vertex="1" connectable="0" parent="V9wCt3ZfCj6iglLPkDqE-25">
          <mxGeometry x="-0.0914" relative="1" as="geometry">
            <mxPoint as="offset" />
          </mxGeometry>
        </mxCell>
        <mxCell id="V9wCt3ZfCj6iglLPkDqE-20" value="x &amp;lt; 0&lt;div&gt;OR&lt;/div&gt;&lt;div&gt;y &amp;lt; 0&lt;/div&gt;" style="rhombus;whiteSpace=wrap;html=1;" vertex="1" parent="1">
          <mxGeometry x="374" y="1180" width="80" height="80" as="geometry" />
        </mxCell>
        <mxCell id="V9wCt3ZfCj6iglLPkDqE-43" style="edgeStyle=orthogonalEdgeStyle;rounded=0;orthogonalLoop=1;jettySize=auto;html=1;exitX=0.5;exitY=1;exitDx=0;exitDy=0;entryX=0.5;entryY=0;entryDx=0;entryDy=0;" edge="1" parent="1" source="V9wCt3ZfCj6iglLPkDqE-22" target="V9wCt3ZfCj6iglLPkDqE-34">
          <mxGeometry relative="1" as="geometry" />
        </mxCell>
        <mxCell id="V9wCt3ZfCj6iglLPkDqE-22" value="write &quot;Error: parameters incorrect&quot;" style="shape=parallelogram;perimeter=parallelogramPerimeter;whiteSpace=wrap;html=1;fixedSize=1;" vertex="1" parent="1">
          <mxGeometry x="337" y="1350" width="154" height="60" as="geometry" />
        </mxCell>
        <mxCell id="V9wCt3ZfCj6iglLPkDqE-45" style="edgeStyle=orthogonalEdgeStyle;rounded=0;orthogonalLoop=1;jettySize=auto;html=1;exitX=0.5;exitY=0;exitDx=0;exitDy=0;entryX=1;entryY=0.5;entryDx=0;entryDy=0;" edge="1" parent="1" source="V9wCt3ZfCj6iglLPkDqE-24" target="V9wCt3ZfCj6iglLPkDqE-6">
          <mxGeometry relative="1" as="geometry" />
        </mxCell>
        <mxCell id="V9wCt3ZfCj6iglLPkDqE-24" value="write&lt;div&gt;x + y&lt;/div&gt;" style="shape=parallelogram;perimeter=parallelogramPerimeter;whiteSpace=wrap;html=1;fixedSize=1;" vertex="1" parent="1">
          <mxGeometry x="626" y="1190" width="120" height="60" as="geometry" />
        </mxCell>
        <mxCell id="V9wCt3ZfCj6iglLPkDqE-44" style="edgeStyle=orthogonalEdgeStyle;rounded=0;orthogonalLoop=1;jettySize=auto;html=1;exitX=0.5;exitY=0;exitDx=0;exitDy=0;entryX=1;entryY=0.5;entryDx=0;entryDy=0;" edge="1" parent="1" source="V9wCt3ZfCj6iglLPkDqE-26" target="V9wCt3ZfCj6iglLPkDqE-6">
          <mxGeometry relative="1" as="geometry" />
        </mxCell>
        <mxCell id="V9wCt3ZfCj6iglLPkDqE-26" value="write&lt;div&gt;x * y&lt;/div&gt;" style="shape=parallelogram;perimeter=parallelogramPerimeter;whiteSpace=wrap;html=1;fixedSize=1;" vertex="1" parent="1">
          <mxGeometry x="506" y="1030" width="120" height="60" as="geometry" />
        </mxCell>
        <mxCell id="V9wCt3ZfCj6iglLPkDqE-41" style="edgeStyle=orthogonalEdgeStyle;rounded=0;orthogonalLoop=1;jettySize=auto;html=1;exitX=0.5;exitY=1;exitDx=0;exitDy=0;entryX=0.5;entryY=0;entryDx=0;entryDy=0;" edge="1" parent="1" source="V9wCt3ZfCj6iglLPkDqE-34" target="V9wCt3ZfCj6iglLPkDqE-40">
          <mxGeometry relative="1" as="geometry" />
        </mxCell>
        <mxCell id="V9wCt3ZfCj6iglLPkDqE-34" value="" style="ellipse;whiteSpace=wrap;html=1;aspect=fixed;" vertex="1" parent="1">
          <mxGeometry x="404" y="1500" width="20" height="20" as="geometry" />
        </mxCell>
        <mxCell id="V9wCt3ZfCj6iglLPkDqE-39" style="edgeStyle=orthogonalEdgeStyle;rounded=0;orthogonalLoop=1;jettySize=auto;html=1;exitX=0.5;exitY=1;exitDx=0;exitDy=0;entryX=0;entryY=0.5;entryDx=0;entryDy=0;" edge="1" parent="1" source="V9wCt3ZfCj6iglLPkDqE-37" target="V9wCt3ZfCj6iglLPkDqE-34">
          <mxGeometry relative="1" as="geometry" />
        </mxCell>
        <mxCell id="V9wCt3ZfCj6iglLPkDqE-37" value="" style="ellipse;whiteSpace=wrap;html=1;aspect=fixed;" vertex="1" parent="1">
          <mxGeometry x="160" y="465" width="30" height="30" as="geometry" />
        </mxCell>
        <mxCell id="V9wCt3ZfCj6iglLPkDqE-40" value="end" style="ellipse;whiteSpace=wrap;html=1;" vertex="1" parent="1">
          <mxGeometry x="354" y="1580" width="120" height="80" as="geometry" />
        </mxCell>
      </root>
    </mxGraphModel>
  </diagram>
</mxfile>
